<svg width="211" height="49" viewBox="0 0 211 49" fill="none" xmlns="http://www.w3.org/2000/svg">
<g clip-path="url(#clip0_5498_9679)">
<path d="M198.223 35.3237H192.416V41.3642H198.223V35.3237Z" fill="#FF5733"/>
<path d="M211 24.02H205.193V30.0604H211V24.02Z" fill="#FF5733"/>
<path d="M194.683 24.6759H183.119V30.7179H194.733V24.6759H200.49V18.6323H194.683V24.6759Z" fill="#FF5733"/>
<path d="M188.926 12.5889H183.119V18.6325H188.926V12.5889Z" fill="#FF5733"/>
<path d="M188.926 42.8052H183.119V48.852H188.926V42.8052Z" fill="#FF5733"/>
<path d="M177.308 36.7646H171.495V42.805H183.122V30.7178H177.308V36.7646Z" fill="#FF5733"/>
<path d="M177.311 24.6759H183.119V18.6323H171.504V30.7179H177.311V24.6759Z" fill="#FF5733"/>
<path d="M162.131 36.7649H171.504V30.715H165.691V24.6777H161.941L164.115 21.0875L168.236 20.9952C168.236 20.9952 168.337 14.017 168.337 13.8053C168.337 13.2624 168.096 12.9885 167.612 12.9885H159.519C159.219 12.9808 158.927 13.095 158.706 13.307C158.414 13.607 158.16 13.9446 157.95 14.3116L153.109 22.7895L147.782 14.5217L147.648 14.302C147.422 13.9563 147.169 13.6305 146.892 13.3277C146.786 13.2153 146.659 13.1268 146.519 13.0674C146.378 13.008 146.228 12.979 146.077 12.9822H137.074C136.835 12.9886 136.608 13.0902 136.44 13.2659C136.271 13.4417 136.174 13.6781 136.168 13.9263C136.182 14.0591 136.223 14.1872 136.289 14.302L146.559 30.2708L135.991 47.744C135.903 47.8955 135.861 48.0707 135.87 48.2471C135.87 48.7487 136.09 49.0002 136.534 49.0002H144.626C144.922 49.0094 145.211 48.9095 145.442 48.7184C145.566 48.6071 145.679 48.484 145.781 48.3506V48.3809L152.444 38.9875L157.777 47.6756C157.986 48.0432 158.239 48.3813 158.531 48.6818C158.753 48.894 159.045 49.0082 159.347 49.0002H168.466C168.63 49.0029 168.791 48.951 168.925 48.8521H171.507V42.8022H166.04L162.131 36.7649Z" fill="#FF5733"/>
<path d="M28.0786 9.36486C27.9668 9.48761 27.832 9.58525 27.6826 9.65178C27.5331 9.71831 27.3722 9.75233 27.2097 9.75174H14.5992C13.1489 9.75174 12.1239 10.0643 11.5242 10.6895C10.9245 11.3146 10.6242 12.4679 10.6232 14.1491V19.9666H26.7125C27.0395 19.9747 27.351 20.1135 27.5823 20.3542C27.8136 20.595 27.9469 20.9191 27.9547 21.2594V27.4017C27.9469 27.7421 27.8136 28.0662 27.5823 28.3069C27.351 28.5476 27.0395 28.6864 26.7125 28.6945H10.6232V47.572C10.6239 47.7416 10.5912 47.9095 10.527 48.0653C10.4627 48.2212 10.3684 48.3616 10.2499 48.4779C10.1372 48.601 10.0016 48.6988 9.85147 48.7656C9.7013 48.8324 9.53964 48.8667 9.37633 48.8664H1.24983C1.08629 48.8667 0.924392 48.8325 0.773966 48.7657C0.623541 48.6989 0.487724 48.601 0.374759 48.4779C0.255853 48.3618 0.161206 48.2215 0.0967209 48.0656C0.0322353 47.9097 -0.000706764 47.7417 -5.14468e-05 47.572V14.1491C-5.14468e-05 11.2175 0.416575 8.8469 1.24983 7.03721C2.08308 5.22753 3.19629 3.82648 4.58947 2.83407C6.05818 1.81288 7.71932 1.12952 9.462 0.829622C11.3632 0.482706 13.2901 0.311684 15.2203 0.318559C16.8756 0.318559 18.3356 0.350931 19.6002 0.415677C20.8649 0.480422 21.9725 0.554189 22.9231 0.636978C23.8746 0.722952 24.6905 0.808925 25.3708 0.894898C26.0511 0.980871 26.663 1.06738 27.2066 1.15441C28.0388 1.2839 28.455 1.71483 28.455 2.44719V8.45896C28.4551 8.62872 28.4218 8.79672 28.3571 8.95254C28.2924 9.10837 28.1976 9.2487 28.0786 9.36486Z" fill="#FF5733"/>
<path d="M40.2562 48.4541C40.1582 48.5834 40.0331 48.6878 39.8904 48.7593C39.7478 48.8307 39.5914 48.8674 39.4331 48.8664H32.0042C31.6711 48.847 31.3565 48.7005 31.1206 48.455C30.8847 48.2095 30.7439 47.8821 30.7253 47.5354V1.52062C30.7261 1.35245 30.7618 1.18645 30.8299 1.03395C30.898 0.881456 30.997 0.746056 31.12 0.637001C31.3561 0.395589 31.6732 0.259146 32.0042 0.256489H39.4331C39.5886 0.253909 39.7428 0.286612 39.8849 0.352324C40.0271 0.418036 40.1538 0.51518 40.2562 0.637001C40.4739 0.876353 40.594 1.19422 40.5912 1.5238V47.5354C40.5903 47.8738 40.4712 48.2003 40.2562 48.4541Z" fill="#FF5733"/>
<path d="M120.911 13.88L115.491 44.4292C115.164 46.2463 114.504 47.4399 113.511 48.0098C112.473 48.5914 111.309 48.8863 110.13 48.8664H106.416C104.954 48.8664 103.817 48.4949 103.006 47.7519C102.167 46.9689 101.573 45.9425 101.3 44.805L97.2197 28.2631C97.1784 28.0513 97.0775 27.9446 96.9138 27.9446C96.7501 27.9446 96.6491 28.0497 96.6078 28.2631L92.5277 44.805C92.2044 46.0341 91.6368 47.0201 90.825 47.7631C90.0132 48.5061 88.8765 48.8775 87.415 48.8775H83.699C83.0854 48.8813 82.4731 48.8172 81.8724 48.6865C81.3177 48.564 80.79 48.3345 80.3165 48.0098C79.8146 47.658 79.3961 47.1919 79.0927 46.647C78.7126 45.9612 78.4536 45.2101 78.3278 44.4292L72.9198 13.88V13.6269C72.9133 13.3512 72.9999 13.0819 73.1645 12.8659C73.2441 12.7614 73.3463 12.6781 73.4628 12.6227C73.5792 12.5674 73.7067 12.5416 73.8346 12.5474H81.2023C81.4981 12.5308 81.7929 12.5967 82.056 12.7385C82.26 12.8648 82.4017 13.1604 82.4813 13.6253L86.0749 37.709C86.1554 38.2556 86.2758 38.5289 86.4359 38.5289C86.6378 38.5289 86.8015 38.2535 86.9224 37.7042L91.004 20.9728C91.2865 19.8743 91.6822 19.1239 92.1912 18.7216C92.7001 18.3193 93.441 18.1187 94.414 18.1198H99.4074C100.381 18.1198 101.122 18.3204 101.63 18.7216C102.138 19.1228 102.534 19.8732 102.817 20.9728L106.899 37.7042C107.025 38.254 107.191 38.5289 107.395 38.5289C107.557 38.5289 107.678 38.2535 107.76 37.7042L111.349 13.6269C111.43 13.162 111.571 12.8659 111.775 12.7401C112.038 12.5983 112.332 12.5324 112.628 12.549H119.998C120.125 12.5438 120.253 12.5699 120.369 12.6252C120.485 12.6805 120.588 12.7635 120.668 12.8675C120.831 13.0844 120.916 13.3532 120.911 13.6285V13.88Z" fill="#FF5733"/>
<path d="M133.209 7.16445C133.203 7.50033 133.072 7.82075 132.844 8.05829C132.616 8.29584 132.308 8.432 131.985 8.43812H124.07C123.747 8.432 123.439 8.29584 123.211 8.05829C122.983 7.82075 122.852 7.50033 122.846 7.16445V1.27368C122.846 1.10773 122.878 0.943443 122.941 0.790935C123.004 0.638427 123.096 0.500923 123.212 0.386884C123.322 0.264454 123.454 0.166908 123.602 0.100342C123.75 0.0337748 123.909 -0.000382541 124.07 3.98763e-06H131.987C132.146 -0.000420932 132.304 0.0331179 132.451 0.0985567C132.597 0.163995 132.729 0.25995 132.839 0.380515C132.956 0.494873 133.05 0.633222 133.114 0.786908C133.177 0.940594 133.21 1.10631 133.209 1.27368V7.16445ZM132.966 47.6037C132.959 47.9394 132.828 48.2593 132.6 48.4967C132.372 48.7341 132.065 48.8705 131.742 48.8774H124.318C123.995 48.8713 123.687 48.7351 123.459 48.4976C123.231 48.26 123.1 47.9396 123.094 47.6037V13.8162C123.1 13.4803 123.231 13.1599 123.459 12.9224C123.687 12.6848 123.995 12.5487 124.318 12.5426H131.748C132.071 12.5495 132.378 12.6859 132.606 12.9233C132.834 13.1606 132.965 13.4806 132.972 13.8162L132.966 47.6037Z" fill="#FF5733"/>
<path d="M72.9443 32.8595C72.9443 35.3273 72.6174 37.5477 71.9636 39.5208C71.3705 41.3898 70.3986 43.1045 69.1136 44.5487C67.8165 45.9638 66.2338 47.0617 64.4797 47.7631C62.6439 48.5242 60.5159 48.9047 58.0957 48.9047C55.6755 48.9047 53.5464 48.5242 51.7086 47.7631C49.9373 47.0688 48.3394 45.9677 47.0336 44.5417C45.7277 43.1158 44.7478 41.4018 44.1665 39.5272C43.5117 37.5551 43.1848 35.3347 43.1859 32.8659V28.5417C43.1859 26.074 43.5127 23.853 44.1665 21.8788C44.7478 20.0042 45.7277 18.2902 47.0336 16.8643C48.3394 15.4383 49.9373 14.3372 51.7086 13.6429C53.5505 12.8829 55.679 12.5029 58.0941 12.5029C60.5092 12.5029 62.6372 12.8829 64.4781 13.6429C66.2312 14.3435 67.8136 15.4391 69.112 16.851C70.3967 18.2954 71.3686 20.01 71.9621 21.8788C72.6159 23.853 72.9427 26.074 72.9427 28.5417L72.9443 32.8595ZM63.3354 28.5417C63.3354 23.5245 61.5888 21.0159 58.0957 21.0159C56.3618 21.0159 55.0452 21.6432 54.1456 22.8977C53.2461 24.1523 52.7943 26.0342 52.7902 28.5433V32.8611C52.7902 35.3702 53.242 37.2617 54.1456 38.5353C55.0492 39.809 56.3659 40.4458 58.0957 40.4458C61.5929 40.4458 63.3415 37.9165 63.3415 32.8579L63.3354 28.5417Z" fill="#FF5733"/>
<path d="M153.16 22.7415L147.805 14.4482L147.671 14.2301C147.442 13.8833 147.186 13.5568 146.906 13.2542C146.801 13.1432 146.675 13.0556 146.536 12.9965C146.398 12.9374 146.249 12.9081 146.1 12.9103H137.074C136.836 12.9171 136.61 13.0184 136.442 13.1934C136.273 13.3684 136.176 13.6038 136.169 13.8512C136.184 13.9847 136.225 14.1134 136.292 14.2285L146.58 30.2259L135.989 47.739C135.901 47.8911 135.859 48.0667 135.868 48.2437C135.868 48.7468 136.088 48.9984 136.534 48.9984H144.642C144.938 49.0075 145.227 48.907 145.459 48.715C145.583 48.6045 145.697 48.4813 145.798 48.3472V48.3774L152.485 38.957L158.32 30.7274L153.16 22.7415Z" fill="url(#paint0_linear_5498_9679)"/>
</g>
<defs>
<linearGradient id="paint0_linear_5498_9679" x1="135.868" y1="30.9551" x2="158.32" y2="30.9551" gradientUnits="userSpaceOnUse">
<stop stop-color="#FF5733"/>
<stop offset="0.85" stop-color="#A83A1E"/>
<stop offset="0.99" stop-color="#65200E"/>
</linearGradient>
<clipPath id="clip0_5498_9679">
<rect width="211" height="49" fill="white"/>
</clipPath>
</defs>
</svg>
